<svg width="281" height="113" viewBox="0 0 281 113" fill="none" xmlns="http://www.w3.org/2000/svg">
<g clip-path="url(#clip0_14_66)">
<rect width="281" height="113" fill="#0F172A"/>
<circle opacity="0.75" cx="80.2219" cy="61.2219" r="30" transform="rotate(-39.3727 80.2219 61.2219)" fill="#F87171"/>
<circle opacity="0.75" cx="51.2219" cy="79.2219" r="30" transform="rotate(-39.3727 51.2219 79.2219)" fill="#EC4899"/>
<circle opacity="0.75" cx="50.78" cy="39.78" r="30" transform="rotate(-21.0718 50.78 39.78)" fill="#5057E9"/>
<path d="M131.231 48.2006C135.27 48.2006 138.359 49.3212 140.495 51.5623C142.658 53.8035 143.74 56.9828 143.74 61.1003C143.74 65.2178 142.658 68.3971 140.495 70.6383C138.359 72.8794 135.27 74 131.231 74H120.286V48.2006H131.231ZM130.567 68.9183C132.756 68.9183 134.345 68.2668 135.336 66.9638C136.352 65.6347 136.86 63.6802 136.86 61.1003C136.86 58.5204 136.352 56.5789 135.336 55.2759C134.345 53.9468 132.756 53.2823 130.567 53.2823H127.009V68.9183H130.567ZM148.344 74V48.2006H168.436V53.3996H155.067V58.6376H165.7V63.5239H155.067V68.801H168.944V74H148.344ZM183.089 47.8097C185.487 47.8097 187.598 48.1876 189.422 48.9433C191.272 49.673 192.875 50.7545 194.23 52.1878L190.985 56.5268C189.865 55.3541 188.653 54.4811 187.35 53.9077C186.073 53.3084 184.614 53.0087 182.972 53.0087C182.008 53.0087 181.226 53.1129 180.627 53.3214C180.027 53.5299 179.597 53.8165 179.337 54.1814C179.076 54.5462 178.946 54.9632 178.946 55.4322C178.946 55.9795 179.193 56.4486 179.688 56.8395C180.21 57.2043 181.043 57.517 182.19 57.7776L186.529 58.7549C189.109 59.3543 190.998 60.2273 192.197 61.3739C193.396 62.5206 193.995 64.0451 193.995 65.9475C193.995 67.7717 193.526 69.3222 192.588 70.5992C191.65 71.85 190.36 72.8012 188.718 73.4527C187.076 74.0782 185.2 74.3909 183.089 74.3909C181.369 74.3909 179.727 74.2085 178.164 73.8436C176.6 73.4527 175.193 72.9055 173.942 72.2019C172.691 71.4982 171.636 70.6904 170.776 69.7783L174.02 65.2829C174.672 66.0387 175.467 66.7162 176.405 67.3156C177.369 67.8889 178.411 68.345 179.532 68.6838C180.679 69.0225 181.838 69.1919 183.011 69.1919C183.923 69.1919 184.679 69.1007 185.278 68.9183C185.904 68.7359 186.36 68.4622 186.646 68.0974C186.933 67.7326 187.076 67.3026 187.076 66.8074C187.076 66.2602 186.881 65.8041 186.49 65.4393C186.099 65.0484 185.356 64.7226 184.262 64.462L179.493 63.4066C178.034 63.0678 176.731 62.6248 175.584 62.0775C174.463 61.5042 173.577 60.7485 172.926 59.8103C172.274 58.8461 171.949 57.6473 171.949 56.214C171.949 54.5983 172.392 53.165 173.278 51.9142C174.164 50.6372 175.441 49.6339 177.108 48.9042C178.776 48.1745 180.77 47.8097 183.089 47.8097ZM208.87 74.3909C206.577 74.3909 204.531 73.8827 202.733 72.8664C200.961 71.85 199.58 70.3516 198.59 68.371C197.599 66.3905 197.104 63.9799 197.104 61.1394C197.104 58.351 197.625 55.9665 198.668 53.9859C199.71 52.0054 201.196 50.4808 203.124 49.4124C205.079 48.3439 207.372 47.8097 210.004 47.8097C212.923 47.8097 215.281 48.3439 217.079 49.4124C218.877 50.4548 220.271 52.1226 221.262 54.4159L215.046 56.8786C214.708 55.5495 214.108 54.5853 213.248 53.9859C212.388 53.3865 211.32 53.0868 210.043 53.0868C208.766 53.0868 207.671 53.3996 206.759 54.025C205.847 54.6244 205.157 55.5235 204.688 56.7222C204.219 57.8949 203.984 59.3543 203.984 61.1003C203.984 62.9245 204.219 64.449 204.688 65.6738C205.183 66.8986 205.899 67.8107 206.838 68.4101C207.802 68.9834 208.988 69.2701 210.395 69.2701C211.15 69.2701 211.841 69.1789 212.467 68.9965C213.092 68.8141 213.639 68.5535 214.108 68.2147C214.577 67.8498 214.942 67.4068 215.203 66.8856C215.463 66.3384 215.594 65.6999 215.594 64.9702V64.5793H209.691V60.084H221.301V74H216.727L216.219 67.941L217.314 68.8792C216.766 70.6513 215.776 72.0194 214.343 72.9837C212.936 73.9218 211.111 74.3909 208.87 74.3909ZM249.706 48.2006V74H242.24L234.226 60.0449L232.272 56.214H232.233L232.389 60.983V74H226.447V48.2006H233.914L241.927 62.1557L243.881 65.9865H243.921L243.764 61.2176V48.2006H249.706Z" fill="url(#paint0_linear_14_66)"/>
</g>
<defs>
<linearGradient id="paint0_linear_14_66" x1="95.4667" y1="38" x2="109.455" y2="100.822" gradientUnits="userSpaceOnUse">
<stop stop-color="#941353"/>
<stop offset="1" stop-color="#665151"/>
</linearGradient>
<clipPath id="clip0_14_66">
<rect width="281" height="113" fill="white"/>
</clipPath>
</defs>
</svg>
